<svg width="180" height="54" viewBox="0 0 180 54" fill="none" xmlns="http://www.w3.org/2000/svg">
<path d="M1.85816 42.7376C2.12653 42.6233 2.51358 42.4644 2.98508 42.2922C4.91644 41.5875 6.43069 41.0313 8.27192 41.0685C9.09291 41.084 11.4038 41.2423 13.545 42.8543C14.2109 43.3573 14.8013 43.9535 15.298 44.6246C15.7204 44.4434 16.1523 44.2854 16.5919 44.1515C17.3778 43.9164 18.1834 43.7536 18.9988 43.6649C19.7029 43.5915 21.1561 43.5086 23.353 43.966C24.6921 44.2441 25.9308 44.6453 28.2509 45.6476C29.9296 46.3726 32.1385 47.3977 34.6927 48.7854L36.487 37.9186L34.2892 47.9075C32.3951 46.8461 30.4338 45.9097 28.4179 45.1043C25.6085 43.9824 24.0194 43.3619 21.837 43.1925C20.3787 43.0795 18.1511 43.1281 15.465 44.0813C14.6873 43.0686 13.7 42.2364 12.571 41.6417C11.5069 41.0898 10.343 40.7576 9.14841 40.6649C6.36347 40.3955 4.14705 41.3719 3.09637 41.93L8.8282 35.1334L1.85816 42.7376Z" fill="#59D3FE"/>
<path d="M9.98472 34.3386L4.07203 41.0795C5.73929 40.2912 7.59613 39.9936 9.42626 40.2213C11.2564 40.4491 12.9845 41.1929 14.4093 42.366C13.9045 41.6241 13.2446 41.001 12.4754 40.5399C11.0867 39.7117 9.74814 39.6999 8.81625 39.6883C7.56259 39.6758 6.31898 39.912 5.1572 40.3833L9.98472 34.3386Z" fill="#2093FA"/>
<path d="M18.5533 42.5377C19.6564 42.4055 20.7686 42.3641 21.8785 42.4138C26.5237 42.6236 30.1325 44.3994 32.2994 45.7485C30.3912 44.2218 28.1666 43.1412 25.7884 42.5857C23.4101 42.0302 20.9382 42.0138 18.5533 42.5377Z" fill="#2093FA"/>
<path d="M17.9697 37.2313C18.0105 37.0099 18.0354 36.7859 18.0442 36.561C18.0494 36.43 18.0487 36.3056 18.0442 36.1887L24.3742 32.0928L24.5976 32.3162C23.8092 32.8634 23.1487 33.5748 22.6613 34.4014C23.9059 33.3736 25.3929 32.6814 26.9806 32.3907L27.8742 34.6248L27.4274 35.295C26.0151 35.369 24.6276 35.6969 23.3316 36.2632L20.3528 35.444L17.9697 37.2313Z" fill="#2093FA"/>
<path d="M17.6514 26.1398C18.0485 27.232 18.4457 28.3242 18.8429 29.4165L19.1408 29.2675C19.0403 28.8877 18.9159 28.5146 18.7684 28.1505C18.4793 27.4373 18.1041 26.7621 17.6514 26.1398Z" fill="#2093FA"/>
<path d="M15.5127 14.7446L16.2574 15.3403C16.4063 14.9114 16.5776 14.4631 16.7787 13.9999C17.1594 13.1225 17.6076 12.276 18.1191 11.4679C17.5293 12.0485 16.9817 12.6707 16.4808 13.3296C16.1085 13.8197 15.7882 14.2978 15.5127 14.7446Z" fill="#2093FA"/>
<path d="M20.3525 31.4242C20.8619 31.1494 21.4247 30.9118 22.0071 30.6422C22.5463 30.3927 22.9201 30.2081 23.422 30.0092L23.2569 28.9666C23.239 29.0054 23.2144 29.0568 23.1824 29.1156C23.0997 29.2645 23.0588 29.3435 23.0335 29.339C22.9627 29.3271 23.0201 28.6636 23.0335 28.5198C23.0707 28.1132 23.1236 27.5137 23.1824 26.7325L20.3525 28.2219C20.4039 28.7529 20.4211 29.1901 20.427 29.4879C20.433 29.7858 20.427 29.9519 20.427 30.6795C20.427 31.0585 20.3525 31.2201 20.3525 31.4242Z" fill="#2093FA"/>
<path d="M18.2676 21.002C18.3497 21.8137 18.5246 22.6132 18.7889 23.3851C19.1731 24.5021 19.5395 24.9407 19.9059 26.066C20.1341 26.7672 20.2839 27.4915 20.3527 28.2256L23.1826 26.7362C23.2262 26.2139 23.2011 25.6881 23.1081 25.1723C23.0404 24.8 22.9376 24.4805 22.7358 23.8319C22.5906 23.365 22.458 22.9814 22.3634 22.7148L21.0974 22.4914L22.2145 24.4276L20.5017 25.3213C19.8269 24.3918 19.2528 23.3932 18.7889 22.3425C18.5841 21.8785 18.4121 21.4302 18.2676 21.002Z" fill="#2093FA"/>
<path d="M25.3424 28.8209C25.1593 28.9314 24.985 29.0559 24.8211 29.1933C24.6323 29.3514 24.4579 29.5258 24.2998 29.7146L25.4169 31.7997C25.6038 31.6992 25.8026 31.5994 26.0126 31.5018C26.3239 31.3574 26.6225 31.2345 26.9063 31.1295C26.6173 30.6871 26.3194 30.2403 26.0126 29.789C25.7892 29.4609 25.5658 29.1382 25.3424 28.8209Z" fill="#2093FA"/>
<path d="M31.5977 29.713V29.1917L33.0871 27.6278L32.2679 26.0639C32.673 25.9669 33.0711 25.8425 33.4594 25.6916C34.8833 25.139 35.806 24.375 36.3637 23.9043C37.9276 22.5869 38.9143 21.0856 39.4915 20.0319L41.3532 21.4468C41.1467 22.0109 40.8978 22.5586 40.6085 23.0851C39.4997 25.1018 38.0848 26.2725 37.3319 26.8831C35.8743 28.0568 34.2061 28.9415 32.4168 29.4896C32.0825 29.5916 31.7995 29.6646 31.5977 29.713Z" fill="#2093FA"/>
<path d="M38.2256 28.4448L39.1937 29.3384C39.5285 28.9174 39.8275 28.469 40.0873 27.998C40.7651 26.7571 41.1712 25.3864 41.2789 23.9766C40.6619 25.7036 39.6103 27.2424 38.2256 28.4448Z" fill="#2093FA"/>
<path d="M41.1094 10.9481L41.7796 11.0225C41.8566 10.7177 41.9562 10.419 42.0775 10.1289C42.4643 9.21717 43.0494 8.40309 43.7903 7.74585C43.1275 8.03788 42.5409 8.47865 42.076 9.03398C41.6111 9.58931 41.2803 10.2443 41.1094 10.9481Z" fill="#2093FA"/>
<path d="M23.9062 22.5299C23.999 22.8732 24.0945 23.184 24.1506 23.5352C24.3176 24.5961 24.3176 25.6766 24.1506 26.7374L25.1932 26.5885L25.64 27.4077C25.8504 27.1949 26.0743 26.9959 26.3103 26.8119C26.9375 26.3248 27.6425 25.9472 28.3954 25.6949L28.2465 25.3225L25.4329 24.6895L23.9062 22.5299Z" fill="#2093FA"/>
<path d="M22.439 7.89183L21.9922 9.67911L24.5986 8.04077C24.8571 7.87321 25.2465 7.61703 25.7157 7.29607C26.7739 6.57222 27.3592 6.16859 28.0243 5.58325C28.4724 5.18826 28.8953 4.76542 29.2903 4.31726L28.3221 4.4662C27.9275 4.70078 27.3071 5.06717 26.5349 5.50878C25.5556 6.0688 25.1385 6.28849 24.3008 6.77478C23.8621 7.02946 23.218 7.40926 22.439 7.89183Z" fill="#2093FA"/>
<path d="M27.2041 7.44775C27.7835 6.95699 28.4284 6.45506 29.1403 5.95835C30.3652 5.10473 31.6607 4.35731 33.0128 3.72424C33.261 5.43705 33.5092 7.14987 33.7575 8.86268L35.8426 8.19245C35.8923 8.49033 35.9419 8.78821 35.9916 9.08609L28.9704 11.5064L27.2041 7.44775Z" fill="#2093FA"/>
<path d="M37.4598 13.4051L38.2255 19.8841C38.5114 19.3815 38.7603 18.8589 38.9702 18.3202C39.5119 16.9187 39.7896 15.429 39.7894 13.9265L37.8322 13.4051C37.6274 13.3999 37.6527 13.4007 37.4598 13.4051Z" fill="#2093FA"/>
<path d="M28.6943 4.02139L29.9603 3.72351C30.3273 3.18484 30.5709 2.57187 30.6739 1.92827C30.7769 1.28467 30.7367 0.626274 30.5561 0C30.3961 1.50915 29.7416 2.92302 28.6943 4.02139Z" fill="#2093FA"/>
<path d="M23.5557 28.2944L24.3004 29.7093C24.2988 29.4535 24.3494 29.2001 24.4493 28.9646C24.5416 28.7509 24.6608 28.5997 24.8961 28.2944C25.0451 28.1022 25.1746 27.9503 25.2685 27.8475L24.8961 27.1028L24.0025 27.1773C23.928 27.3434 23.8535 27.5169 23.7791 27.6986C23.6957 27.9041 23.6219 28.1037 23.5557 28.2944Z" fill="#2093FA"/>
<path fill-rule="evenodd" clip-rule="evenodd" d="M37.05 13.3705L34.667 12.9609C34.6173 13.2092 34.545 13.476 34.4727 13.7429C34.4004 14.0097 34.328 14.2766 34.2784 14.5248L35.3954 16.0142L35.0231 17.9504C34.83 17.946 34.6314 17.946 34.4273 17.9504C34.1826 17.956 33.9381 17.9682 33.6941 17.9871C33.7217 18.17 33.736 18.3573 33.736 18.5479C33.736 19.1188 33.6076 19.6597 33.3779 20.1432L34.8742 21.3016C35.0373 21.1544 35.2502 21.0746 35.4699 21.0782C35.6016 21.0811 35.7307 21.1158 35.8462 21.1793C35.9617 21.2427 36.0601 21.3331 36.1332 21.4428C36.2063 21.5524 36.2519 21.678 36.266 21.809C36.2802 21.94 36.2626 22.0725 36.2146 22.1952L37.704 20.5569C37.5799 19.415 37.4785 18.1894 37.377 16.9637C37.2756 15.7381 37.1741 14.5124 37.05 13.3705Z" fill="#2093FA"/>
<path fill-rule="evenodd" clip-rule="evenodd" d="M31.4873 21.9647L33.3844 23.9804C34.3212 23.7948 35.1787 23.327 35.842 22.6399C35.6973 22.7161 35.5334 22.7481 35.3707 22.7319C35.208 22.7158 35.0536 22.6522 34.9267 22.5491C34.7998 22.446 34.706 22.3079 34.6568 22.1519C34.6077 21.996 34.6055 21.829 34.6504 21.6718L33.2158 20.4421C32.8167 21.1151 32.2115 21.6516 31.4873 21.9647Z" fill="#2093FA"/>
<path fill-rule="evenodd" clip-rule="evenodd" d="M25.6399 24.2823L23.7782 21.7503C23.6389 21.34 23.4505 20.7524 23.2569 20.0375C22.991 19.0545 22.7073 17.9881 22.5867 16.6119C22.5122 15.7823 22.4712 15.2513 22.5867 14.5267C22.6996 13.8246 23.0166 12.8848 23.3476 12.2554L25.8423 13.9682C25.6686 14.4274 25.4855 14.9332 25.3024 15.439C25.1194 15.9447 24.9363 16.4505 24.7625 16.9097L26.4058 17.9853C26.3778 18.1694 26.3633 18.3578 26.3633 18.5497C26.3633 20.6061 28.0304 22.2732 30.0868 22.2732C30.3602 22.2732 30.6268 22.2437 30.8835 22.1878L32.7146 24.1333C32.5479 24.2444 32.3737 24.344 32.1933 24.4312C31.7089 24.6662 31.3225 24.7442 30.8839 24.8327C30.711 24.8676 30.5299 24.9041 30.3316 24.9525C29.8734 25.065 29.4251 25.2144 28.9911 25.3993L25.2676 19.3673C25.6562 18.7715 25.0753 18.2793 24.7253 18.2502C24.4378 18.2264 24.0402 18.4461 23.9434 18.7343C23.8547 18.9979 23.8689 19.2556 24.1668 19.5534C24.2412 19.7024 24.7171 19.759 24.7625 19.7396L27.8903 24.7291L25.6399 24.2823Z" fill="#2093FA"/>
<path fill-rule="evenodd" clip-rule="evenodd" d="M26.6077 7.9707C25.3516 8.91569 24.3319 10.1393 23.6289 11.5453L26.7567 13.7794L25.5651 16.6092L26.5948 17.2595C26.9315 16.348 27.6147 15.6044 28.4846 15.1885C28.3071 14.7416 28.1171 14.2884 27.9272 13.8352C27.7099 13.317 27.4927 12.7988 27.2942 12.29L28.5229 11.7314L26.6077 7.9707Z" fill="#2093FA"/>
<path fill-rule="evenodd" clip-rule="evenodd" d="M17.9524 35.3078L24.1287 31.4354L23.5542 30.3928L20.1788 32.0311L19.6042 32.7014V32.1801L18.527 32.7014L17.0413 29.3269C16.7082 29.2528 16.4591 28.9555 16.4591 28.6C16.4591 28.1888 16.7925 27.8554 17.2037 27.8554C17.615 27.8554 17.9484 28.1888 17.9484 28.6C17.9484 28.8414 17.8335 29.0559 17.6555 29.192L18.886 31.9567L19.6042 31.4354L19.1733 29.4247L18.7424 29.6481L16.8033 24.0628C16.6439 23.6592 16.4371 23.1014 16.2288 22.4245C16.0852 21.9583 15.7914 21.0021 15.6543 20.1159C15.5329 19.3333 15.4438 18.0248 15.8697 16.318L15.0797 15.4243C14.701 16.1367 14.3884 16.8847 14.1461 17.6584C13.8042 18.7509 13.262 20.4883 13.5716 22.6479C13.6527 23.2109 13.7633 23.6101 13.9306 24.2118C14.2674 25.4243 14.7247 26.5973 15.2952 27.7119C15.3071 27.3023 15.3141 26.8741 15.321 26.4459C15.3276 26.0342 15.3342 25.6225 15.3454 25.2274C15.2286 25.1606 15.1316 25.0631 15.0654 24.9459C15.0288 24.8854 15.0065 24.8372 14.9955 24.7755C14.9787 24.7134 14.9697 24.648 14.9697 24.5805C14.9697 24.1693 15.3031 23.8359 15.7143 23.8359C16.1256 23.8359 16.459 24.1693 16.459 24.5805C16.459 24.9462 16.1953 25.2504 15.8476 25.3132C15.8368 25.8903 15.8302 26.4753 15.8237 27.0603L15.8237 27.0604C15.8168 27.6778 15.8099 28.2953 15.7979 28.9034C16.0619 29.3356 16.3017 29.7831 16.5161 30.2439C17.1021 31.5031 17.3671 32.5815 17.5933 33.5205C17.6967 33.9517 17.831 34.5631 17.9524 35.3078Z" fill="#2093FA"/>
<path fill-rule="evenodd" clip-rule="evenodd" d="M17.6303 38.9238C17.6115 38.9095 17.5936 38.8938 17.5768 38.877C17.3715 39.6597 17.1229 40.4304 16.8321 41.1855C16.5683 41.8704 16.2701 42.5415 15.9385 43.1962C16.4724 42.4039 17.066 41.581 17.7258 40.7387C18.2009 40.1318 18.6745 39.5613 19.1407 39.0259L18.869 38.9172C18.7357 39.1187 18.5071 39.2516 18.2475 39.2516C17.9906 39.2516 17.7642 39.1216 17.6303 38.9238Z" fill="#2093FA"/>
<path fill-rule="evenodd" clip-rule="evenodd" d="M18.9901 38.5375L19.4586 38.7249C20.378 37.8958 21.405 37.1944 22.5118 36.6397L20.2777 36.0439L17.9692 37.6823L17.9199 37.83C18.0185 37.7818 18.1293 37.7548 18.2464 37.7548C18.6577 37.7548 18.991 38.0882 18.991 38.4994C18.991 38.5122 18.9907 38.5249 18.9901 38.5375Z" fill="#2093FA"/>
<path fill-rule="evenodd" clip-rule="evenodd" d="M18.9898 21.559C18.7278 21.08 18.3682 20.4227 18.134 19.9589C18.0011 19.121 17.9847 18.4984 17.9688 17.6503C17.9466 16.9791 17.9715 16.3073 18.0433 15.6396C18.1282 14.8949 18.2898 13.582 19.0114 12.065C19.4404 11.1735 19.9918 10.3464 20.6497 9.60751C20.9298 9.29236 21.2282 8.99396 21.5434 8.71387L21.0966 10.7246L23.703 9.08622C23.5459 9.34388 23.312 9.73038 23.0328 10.2033C23.0148 10.2339 22.997 10.264 22.9796 10.2936C22.4452 11.2017 22.1726 11.6648 21.9902 12.065C21.6974 12.7101 21.4728 13.384 21.32 14.0757C21.1734 14.6855 21.0984 15.3103 21.0966 15.9375C21.0974 16.2863 21.1223 16.6346 21.171 16.98L19.7226 15.9266C19.7309 15.8821 19.7353 15.8361 19.7353 15.7891C19.7353 15.3778 19.4019 15.0445 18.9906 15.0445C18.5794 15.0445 18.246 15.3778 18.246 15.7891C18.246 16.2003 18.5794 16.5337 18.9906 16.5337C19.1545 16.5337 19.3059 16.4808 19.4289 16.3911L21.171 17.5758C21.218 18.076 21.2925 18.5732 21.3944 19.0652C21.4833 19.4945 21.5713 19.8157 21.6901 20.2488L21.6923 20.2567C21.8003 20.6514 21.9477 21.1578 22.1391 21.7461H20.2191L21.4851 24.0919L20.6287 24.6132C20.2827 24.0745 19.9363 23.3928 19.5928 22.7167C19.3908 22.3191 19.1898 21.9235 18.9904 21.56L18.9898 21.559Z" fill="#2093FA"/>
<path fill-rule="evenodd" clip-rule="evenodd" d="M26.8311 27.8551C26.5181 28.0014 26.2189 28.1759 25.9375 28.3764L27.4269 30.9084C28.0266 30.7039 28.6472 30.5053 29.2887 30.3126C29.8204 30.1533 30.3417 30.0043 30.8525 29.8658V29.3445L32.4909 27.7062L31.7462 26.2168C31.379 26.3657 30.9814 26.5206 30.5547 26.6636C30.1116 26.8126 29.6878 26.9347 29.2887 27.036L29.7381 27.6352C30.1384 27.6477 30.459 27.9761 30.459 28.3794C30.459 28.7907 30.1256 29.1241 29.7144 29.1241C29.3032 29.1241 28.9698 28.7907 28.9698 28.3794C28.9698 28.2022 29.0317 28.0395 29.135 27.9116L28.7674 27.3338C28.0967 27.3946 27.4416 27.5709 26.8311 27.8551Z" fill="#2093FA"/>
<path fill-rule="evenodd" clip-rule="evenodd" d="M34.3531 8.04294L33.6084 3.4258L34.2786 3.05345L36.7996 4.41612C36.7927 4.45688 36.7891 4.49877 36.7891 4.54149C36.7891 4.95274 37.1224 5.28611 37.5337 5.28611C37.9449 5.28611 38.2783 4.95274 38.2783 4.54149C38.2783 4.13025 37.9449 3.79688 37.5337 3.79688C37.3339 3.79688 37.1525 3.87557 37.0187 4.00365L34.7999 2.75557C35.4294 2.43138 36.0748 2.10867 36.7361 1.78746C37.5434 1.39575 38.3377 1.0234 39.1192 0.67041C39.1951 1.51093 39.2696 2.35492 39.3426 3.20239C39.4191 4.1 39.4935 4.99364 39.566 5.88331L34.3531 8.04294Z" fill="#2093FA"/>
<path fill-rule="evenodd" clip-rule="evenodd" d="M36.2513 7.89161L39.6769 6.55115C39.8375 7.13874 39.9618 7.73562 40.0493 8.33843C40.2356 9.63765 40.116 10.9796 39.9938 12.3515L39.9938 12.3516C39.9671 12.6508 39.9403 12.9515 39.9166 13.2535L34.3896 12.3598L33.7193 14.5939L34.8898 16.2323L34.6664 17.4238L33.577 17.4646C33.3044 16.5601 32.697 15.8007 31.8989 15.3304L32.4533 14.2216C32.4545 14.2213 32.4558 14.221 32.4573 14.2206C32.4616 14.2207 32.466 14.2207 32.4703 14.2207C32.8816 14.2207 33.2149 13.8874 33.2149 13.4761C33.2149 13.0649 32.8816 12.7315 32.4703 12.7315C32.0591 12.7315 31.7257 13.0649 31.7257 13.4761C31.7257 13.6645 31.7957 13.8365 31.911 13.9677L31.3805 15.077C30.9567 14.9093 30.4948 14.8172 30.0114 14.8172C29.6036 14.8172 29.2111 14.8828 28.8438 15.0039C28.7207 14.6476 28.5711 14.267 28.4214 13.8865L28.4214 13.8864L28.4214 13.8864C28.2238 13.3838 28.0262 12.8811 27.8896 12.4343L36.6981 9.45548L36.2513 7.89161Z" fill="#2093FA"/>
<path fill-rule="evenodd" clip-rule="evenodd" d="M41.4272 20.9247L39.8633 19.5843C40.1775 18.8753 40.3785 18.1215 40.459 17.3502L40.7474 17.5809C40.7401 17.6142 40.7363 17.6487 40.7363 17.6842C40.7363 17.9515 40.953 18.1682 41.2203 18.1682C41.4876 18.1682 41.7043 17.9515 41.7043 17.6842C41.7043 17.4169 41.4876 17.2002 41.2203 17.2002C41.2035 17.2002 41.1869 17.2011 41.1705 17.2027C41.1571 17.2039 41.1438 17.2059 41.1306 17.2085C41.0376 17.2259 40.954 17.2699 40.888 17.3323L40.608 17.0523C40.6385 16.4253 40.6914 15.3849 40.7569 14.2969C40.7851 13.8293 40.7982 13.6385 40.8073 13.5076C40.816 13.3821 40.8208 13.3117 40.8314 13.1054C40.8346 13.0419 40.8376 12.981 40.8405 12.9218C40.8555 12.6139 40.8684 12.3506 40.9059 11.9883C40.9319 11.7359 40.9602 11.5296 40.9803 11.3926L41.725 11.5415C41.7146 12.2423 41.7183 12.8276 41.725 13.2543C41.7384 14.1167 41.7697 14.8234 41.7995 15.4884C41.8164 15.8632 41.8281 16.0798 41.8381 16.264C41.8506 16.4948 41.8603 16.675 41.874 17.0523C41.9112 18.0673 41.9053 18.5201 41.874 18.9885C41.8541 19.4427 41.7791 19.8929 41.6506 20.329C41.5887 20.5321 41.5141 20.7311 41.4272 20.9247Z" fill="#2093FA"/>
<path fill-rule="evenodd" clip-rule="evenodd" d="M28.672 34.1089L27.7783 32.1727C29.103 32.1791 30.4251 32.0544 31.7252 31.8003C33.0553 31.5389 34.2416 31.2962 35.5977 30.5343C36.3888 30.0891 37.1154 29.5379 37.7573 28.896L38.8744 29.9386C38.5765 30.3005 38.2585 30.6751 37.9063 31.0556C37.4916 31.504 37.0824 31.9103 36.6874 32.2779C36.6048 32.0014 36.3485 31.7999 36.0451 31.7999C35.675 31.7999 35.375 32.0999 35.375 32.47C35.375 32.5921 35.4076 32.7066 35.4647 32.8051C35.4074 32.8484 35.3407 32.8978 35.2626 32.9546C34.853 33.2525 34.704 33.327 34.6296 33.3642C32.9157 34.2488 31.0418 34.7806 29.1188 34.9281L30.6082 33.96L30.2358 33.5131L28.672 34.1089Z" fill="#2093FA"/>
<path fill-rule="evenodd" clip-rule="evenodd" d="M28.7587 16.8754C28.8766 16.9749 28.8915 17.151 28.792 17.2689L27.9522 18.2643L29.0254 19.3376L29.9296 18.4334C30.0677 18.2953 30.2917 18.2953 30.4298 18.4334L31.4829 19.4865L32.477 18.4925C32.586 18.3834 32.7629 18.3834 32.8719 18.4925C32.981 18.6015 32.981 18.7784 32.8719 18.8874L31.4829 20.2764L30.1797 18.9732L29.0254 20.1275L27.1943 18.2964L28.3652 16.9088C28.4646 16.7909 28.6408 16.7759 28.7587 16.8754Z" fill="#2093FA"/>
<path d="M54.8722 37.2213H52V14H54.8722V37.2213ZM69.3758 14L58.6171 26.059L69.6773 37.2213H65.9007L54.9039 26.1071L65.7102 14H69.3758Z" fill="#2093FA"/>
<path d="M78.8651 27.6445C77.3206 26.9719 76.0194 27.1694 74.9615 28.237C74.3162 28.8883 73.9882 29.673 73.9776 30.5912V37.2213H71.1055V24.6337H73.9776V26.3793C75.1202 24.2974 77.1302 23.8383 80.0076 25.0021L78.8651 27.6445Z" fill="#2093FA"/>
<path d="M81.2612 24.6337H84.1334V37.2213H81.2612V24.6337ZM82.6735 17.235C83.1495 17.235 83.5568 17.4058 83.8954 17.7474C84.2445 18.0891 84.419 18.5055 84.419 18.9966C84.419 19.4877 84.2445 19.9041 83.8954 20.2457C83.5568 20.5874 83.1495 20.7582 82.6735 20.7582C82.1869 20.7582 81.7743 20.5874 81.4358 20.2457C81.0972 19.9041 80.928 19.4877 80.928 18.9966C80.928 18.5055 81.0972 18.0891 81.4358 17.7474C81.7743 17.4058 82.1869 17.235 82.6735 17.235Z" fill="#2093FA"/>
<path d="M93.6226 28.1249C93.5592 27.6659 93.3317 27.3135 92.9403 27.068C92.5912 26.8438 92.1839 26.7423 91.7184 26.7637C91.2424 26.7744 90.8457 26.9078 90.5283 27.1641C90.1792 27.4523 90.0047 27.826 90.0047 28.2851C90.0047 28.6908 90.2691 29.0431 90.7981 29.3421C91.126 29.5129 91.7132 29.7371 92.5595 30.0147C93.977 30.4631 94.9503 30.8688 95.4792 31.2318C96.3573 31.8403 96.7963 32.6678 96.7963 33.7141C96.7963 34.8885 96.2938 35.8333 95.2888 36.5487C94.379 37.1892 93.263 37.5256 91.9406 37.5576C90.6182 37.5789 89.481 37.2853 88.5289 36.6768C87.4816 36.0042 86.9209 35.0806 86.8469 33.9062L89.719 33.7941C89.7402 34.2532 89.9729 34.6162 90.4172 34.8831C90.8192 35.1287 91.3006 35.2461 91.8613 35.2355C92.4219 35.2248 92.8927 35.0913 93.2735 34.8351C93.6967 34.5575 93.9083 34.1838 93.9083 33.7141C93.9083 33.2016 93.1149 32.6945 91.528 32.1927C90.0681 31.7229 89.0579 31.2958 88.4972 30.9115C87.5874 30.2709 87.1325 29.3954 87.1325 28.2851C87.1325 27.132 87.5874 26.2032 88.4972 25.4985C89.3223 24.8473 90.3432 24.4949 91.5598 24.4416C92.7763 24.3882 93.8395 24.6444 94.7493 25.2103C95.7437 25.8402 96.3203 26.7263 96.4789 27.8687L93.6226 28.1249Z" fill="#2093FA"/>
<path d="M102.065 25.8669C102.879 25.1302 103.842 24.6711 104.953 24.4896C106.042 24.3188 107.09 24.4362 108.095 24.8419C109.152 25.2583 109.993 25.9363 110.618 26.8758C111.316 27.9221 111.665 29.1766 111.665 30.6392V37.2213H108.793V30.6392C108.793 29.6997 108.465 28.899 107.809 28.237C107.153 27.5751 106.36 27.2441 105.429 27.2441C104.498 27.2441 103.704 27.5751 103.048 28.237C102.403 28.8883 102.075 29.673 102.065 30.5912V37.2213H99.1924V14H102.065V25.8669Z" fill="#2093FA"/>
<path d="M125.031 24.9502L123.157 28.631L124.985 31.9898L128.349 24.9502H131.421L124.985 37.557L121.789 31.2996L118.594 37.557L112.158 24.9502H115.23L118.594 31.9898L120.422 28.631L118.548 24.9502H121.16L121.789 26.1004L122.419 24.9502H125.031Z" fill="#2093FA"/>
<path d="M134.339 26.5912C135.558 25.3745 137.033 24.7661 138.763 24.7661C140.494 24.7661 141.974 25.3745 143.203 26.5912C144.421 27.8182 145.03 29.2956 145.03 31.0235C145.03 32.7515 144.421 34.2238 143.203 35.4405C141.974 36.6675 140.494 37.281 138.763 37.281C137.033 37.281 135.558 36.6675 134.339 35.4405C133.11 34.2238 132.496 32.7515 132.496 31.0235C132.496 29.2956 133.11 27.8182 134.339 26.5912ZM138.763 27.5268C137.688 27.5268 136.833 27.8897 136.198 28.6157C135.624 29.27 135.338 30.0675 135.338 31.0082C135.338 31.9489 135.624 32.7464 136.198 33.4007C136.833 34.1267 137.693 34.4897 138.779 34.4897C139.854 34.4897 140.714 34.1267 141.359 33.4007C141.933 32.7464 142.219 31.9489 142.219 31.0082C142.219 30.0675 141.933 29.27 141.359 28.6157C140.714 27.8897 139.849 27.5268 138.763 27.5268Z" fill="#2093FA"/>
<path d="M154.846 27.8335C153.351 27.1893 152.091 27.3785 151.067 28.4009C150.443 29.0246 150.125 29.7761 150.115 30.6555V37.0049H147.335V24.9502H150.115V26.6219C151.221 24.6281 153.167 24.1884 155.952 25.3029L154.846 27.8335Z" fill="#2093FA"/>
<path d="M157.166 14.7665H159.946V30.7782L165.522 24.9502H169.408L163.371 30.9775L169.685 37.0049H165.798L159.946 31.1616V37.0049H157.166V14.7665Z" fill="#2093FA"/>
<path d="M176.689 28.2936C176.628 27.8539 176.408 27.5165 176.029 27.2814C175.691 27.0666 175.297 26.9695 174.846 26.99C174.385 27.0002 174.001 27.128 173.694 27.3734C173.356 27.6494 173.187 28.0073 173.187 28.447C173.187 28.8355 173.443 29.1729 173.955 29.4592C174.272 29.6228 174.841 29.8375 175.66 30.1033C177.032 30.5328 177.974 30.9213 178.486 31.2689C179.336 31.8517 179.761 32.6441 179.761 33.6461C179.761 34.7708 179.275 35.6757 178.302 36.3607C177.421 36.9742 176.341 37.2963 175.061 37.327C173.781 37.3474 172.68 37.0662 171.758 36.4834C170.745 35.8393 170.202 34.9549 170.13 33.8302L172.91 33.7228C172.931 34.1625 173.156 34.5101 173.586 34.7657C173.975 35.0009 174.441 35.1133 174.984 35.1031C175.527 35.0929 175.983 34.9651 176.351 34.7197C176.761 34.4539 176.966 34.096 176.966 33.6461C176.966 33.1554 176.198 32.6697 174.662 32.1891C173.248 31.7393 172.27 31.3303 171.728 30.9622C170.847 30.3487 170.407 29.5103 170.407 28.447C170.407 27.3427 170.847 26.4532 171.728 25.7784C172.526 25.1547 173.515 24.8173 174.692 24.7661C175.87 24.715 176.899 24.9604 177.78 25.5023C178.742 26.1055 179.301 26.9542 179.454 28.0482L176.689 28.2936Z" fill="#2093FA"/>
</svg>
